<svg width="1920" height="56" viewBox="0 0 1920 56" fill="none" xmlns="http://www.w3.org/2000/svg">
<g clip-path="url(#clip0_303_8051)">
<path d="M541.28 20.3055C541.28 20.8455 541.126 21.3084 540.74 21.617C540.354 22.0027 539.891 22.157 539.351 22.157C538.966 22.157 538.657 22.0798 538.426 21.9255C538.117 21.7712 537.886 21.5398 537.731 21.2312C537.577 20.9227 537.5 20.6141 537.5 20.3055C537.5 19.7655 537.654 19.3027 538.04 18.9941C538.426 18.6084 538.889 18.4541 539.351 18.4541C539.891 18.4541 540.354 18.6084 540.663 18.9941C541.049 19.3027 541.28 19.7655 541.28 20.3055Z" fill="#F5F5F5"/>
<path d="M554.78 32.3401C554.78 33.4973 554.317 34.5001 553.468 35.1944C552.62 35.9658 551.308 36.2744 549.611 36.2744C548.685 36.2744 547.837 36.1973 547.065 36.043C546.294 35.8887 545.522 35.6573 544.674 35.2716V32.0316C545.445 32.4944 546.062 32.803 546.68 33.0344C547.22 33.2658 547.837 33.343 548.531 33.343C549.688 33.343 550.228 33.0344 550.228 32.4173C550.228 32.1858 550.151 32.0316 549.997 31.8773C549.842 31.723 549.534 31.4916 549.148 31.3373C548.762 31.1058 548.222 30.8744 547.528 30.5658C546.68 30.1801 545.985 29.7173 545.368 29.1001C544.751 28.483 544.52 27.7116 544.52 26.7859C544.52 26.1687 544.751 25.5516 545.137 24.9344C545.522 24.3173 546.14 23.8544 546.911 23.4687C547.682 23.083 548.685 22.9287 549.765 22.9287C549.997 22.9287 550.382 22.9287 550.768 23.0059C551.154 23.083 551.694 23.1601 552.311 23.3144C552.928 23.4687 553.545 23.7001 554.085 24.0087V27.1716C553.854 27.0173 553.622 26.863 553.391 26.7859C553.237 26.7087 553.005 26.5544 552.697 26.4001C552.388 26.2459 552.002 26.1687 551.617 26.0144C551.231 25.9373 550.768 25.8601 550.382 25.8601C549.842 25.8601 549.534 25.9373 549.302 26.1687C549.071 26.4001 548.994 26.5544 548.994 26.7859C548.994 27.0173 549.071 27.1716 549.302 27.403C549.534 27.6344 549.92 27.7887 550.614 28.0973C551.617 28.483 552.388 28.8687 553.005 29.2544C553.622 29.6401 554.008 30.103 554.317 30.5658C554.625 31.1058 554.78 31.6458 554.78 32.3401Z" fill="#F5F5F5"/>
<path d="M567.355 35.2713C566.892 35.5027 566.275 35.7342 565.426 35.8884C564.578 36.1199 563.806 36.197 563.035 36.197C559.795 36.197 558.175 34.577 558.175 31.4142V26.3227H556.092V25.5513L562.186 19.3799H562.726V23.237H567.046V26.3999H562.726V30.4884C562.726 30.9513 562.726 31.337 562.803 31.6456C562.88 31.9542 563.035 32.1856 563.266 32.417C563.575 32.6484 563.96 32.7256 564.5 32.7256C565.195 32.7256 566.198 32.417 567.355 31.7999V35.2713Z" fill="#F5F5F5"/>
<path d="M585.329 20.3055C585.329 20.8455 585.175 21.3084 584.789 21.617C584.403 22.0027 583.94 22.157 583.4 22.157C583.015 22.157 582.706 22.0798 582.475 21.9255C582.166 21.7712 581.935 21.5398 581.78 21.2312C581.626 20.9227 581.549 20.6141 581.549 20.3055C581.549 19.7655 581.703 19.3027 582.089 18.9941C582.475 18.6084 582.937 18.4541 583.4 18.4541C583.94 18.4541 584.403 18.6084 584.712 18.9941C585.097 19.3027 585.329 19.7655 585.329 20.3055Z" fill="#F5F5F5"/>
<path d="M631.693 35.2713C631.23 35.5027 630.613 35.7342 629.764 35.8884C628.915 36.1199 628.144 36.197 627.373 36.197C624.133 36.197 622.513 34.577 622.513 31.4142V26.3227H620.43V25.5513L626.524 19.3799H627.064V23.237H631.384V26.3999H627.064V30.4884C627.064 30.9513 627.064 31.337 627.141 31.6456C627.218 31.9542 627.373 32.1856 627.604 32.417C627.835 32.6484 628.298 32.7256 628.838 32.7256C629.533 32.7256 630.535 32.417 631.693 31.7999V35.2713Z" fill="#F5F5F5"/>
<path d="M647.815 29.6392C647.815 30.9506 647.507 32.0306 646.967 33.0335C646.427 34.0363 645.578 34.8077 644.498 35.4249C643.418 36.042 642.03 36.2734 640.487 36.2734C638.944 36.2734 637.555 35.9649 636.475 35.4249C635.395 34.8849 634.547 34.0363 634.007 33.0335C633.467 32.0306 633.158 30.8735 633.158 29.6392C633.158 28.6363 633.312 27.7877 633.621 27.0163C633.93 26.2449 634.392 25.5506 635.01 24.9335C635.627 24.3163 636.398 23.8535 637.324 23.5449C638.25 23.2363 639.33 23.082 640.487 23.082C641.721 23.082 642.724 23.2363 643.727 23.5449C644.73 23.8535 645.424 24.3163 646.041 24.9335C646.658 25.5506 647.121 26.2449 647.43 27.0163C647.738 27.7877 647.815 28.6363 647.815 29.6392ZM643.11 29.6392C643.11 28.6363 642.878 27.8649 642.415 27.2477C641.952 26.6306 641.335 26.3992 640.487 26.3992C639.638 26.3992 639.021 26.7077 638.558 27.2477C638.095 27.7877 637.864 28.6363 637.864 29.6392C637.864 30.642 638.095 31.4135 638.558 32.0306C639.021 32.6477 639.638 32.8792 640.487 32.8792C641.335 32.8792 641.952 32.5706 642.415 32.0306C642.878 31.4135 643.11 30.642 643.11 29.6392Z" fill="#F5F5F5"/>
<path d="M540.354 36.042C540.509 36.042 540.894 36.042 541.28 35.6563C541.28 35.6563 541.666 35.2706 541.666 34.7306V23.2363H538.426C538.349 23.2363 537.886 23.2363 537.577 23.622C537.577 23.622 537.191 24.0078 537.191 24.5478V36.042H540.354Z" fill="#F5F5F5"/>
<path d="M617.42 36.042C617.497 36.042 617.96 36.042 618.269 35.6563C618.269 35.6563 618.654 35.2706 618.654 34.7306V23.2363H615.414C615.337 23.2363 614.874 23.2363 614.566 23.622C614.566 23.622 614.18 24.0078 614.18 24.5478V30.7963C613.794 31.4135 613.409 31.8763 613.023 32.262C612.637 32.6478 612.097 32.802 611.48 32.802C610.709 32.802 610.169 32.5706 609.937 32.0306C609.706 31.4906 609.551 30.8735 609.551 30.1792V23.2363H605V30.7963C605 32.1849 605.309 33.4963 605.849 34.5763C606.389 35.6563 607.7 36.2735 609.629 36.2735C610.631 36.2735 611.48 36.1192 612.174 35.7335C612.869 35.4249 613.563 34.8849 614.18 34.1906V36.042H617.42Z" fill="#F5F5F5"/>
<path d="M534.029 34.7313V18.6085H530.789C530.712 18.6085 530.249 18.6085 529.941 18.9942C529.941 18.9942 529.555 19.3799 529.555 19.9199V24.0085C529.169 23.6999 528.706 23.4685 528.166 23.3142C527.626 23.1599 526.932 23.0056 526.161 23.0056C524.772 23.0056 523.692 23.3142 522.766 23.9313C521.841 24.5485 521.146 25.397 520.684 26.3999C520.221 27.4027 520.066 28.4827 520.066 29.6399C520.066 31.1056 520.375 32.3399 520.915 33.3427C521.455 34.3456 522.226 35.0399 523.152 35.5027C524.078 35.9656 524.926 36.197 525.929 36.197C526.855 36.197 527.626 36.0427 528.166 35.8113C528.706 35.5799 529.169 35.1942 529.709 34.8084V36.0427H532.949C533.026 36.0427 533.489 36.0427 533.798 35.657C533.644 35.657 534.029 35.3484 534.029 34.7313ZM529.478 31.9542C529.169 32.1856 528.861 32.417 528.475 32.5713C528.166 32.7256 527.704 32.8027 527.164 32.8027C526.469 32.8027 525.929 32.5713 525.389 32.0313C524.849 31.4913 524.618 30.7199 524.618 29.5627C524.618 28.5599 524.849 27.7113 525.312 27.0942C525.775 26.477 526.392 26.1685 527.086 26.1685C527.472 26.1685 527.858 26.2456 528.166 26.3227C528.475 26.477 528.861 26.6313 529.401 26.9399V31.9542H529.478Z" fill="#F5F5F5"/>
<path d="M660.081 23.2373C659.696 23.083 659.233 23.0059 658.77 23.0059C657.767 23.0059 656.918 23.3916 656.224 24.0859C655.53 24.7801 654.99 25.5516 654.681 26.323V23.2373H651.441C651.287 23.2373 650.901 23.3144 650.593 23.623C650.593 23.623 650.207 24.0087 650.207 24.5487V36.043H653.447C653.524 36.043 653.987 36.043 654.296 35.6573C654.296 35.6573 654.681 35.2716 654.681 34.7316V30.4887C655.144 29.3316 655.53 28.5601 655.993 28.0973C656.456 27.6344 656.996 27.4801 657.613 27.4801C658.307 27.4801 659.001 27.7887 659.696 28.483L661.393 23.9316C660.93 23.623 660.467 23.3916 660.081 23.2373Z" fill="#F5F5F5"/>
<path d="M582.397 23.2363C582.243 23.2363 581.857 23.2363 581.472 23.622C581.472 23.622 581.086 24.0078 581.086 24.5478V36.042H584.326C584.403 36.042 584.866 36.042 585.175 35.6563C585.175 35.6563 585.56 35.2706 585.56 34.7306V23.2363H582.397Z" fill="#F5F5F5"/>
<path d="M579.236 23.2373C578.85 23.083 578.387 23.0059 577.924 23.0059C576.921 23.0059 576.073 23.3916 575.378 24.0859C574.684 24.7801 574.144 25.5516 573.836 26.323V23.2373H570.596C570.518 23.2373 570.056 23.2373 569.747 23.623C569.747 23.623 569.361 24.0087 569.361 24.5487V36.043H572.601C572.678 36.043 573.141 36.043 573.45 35.6573C573.45 35.6573 573.836 35.2716 573.836 34.7316V30.4887C574.298 29.3316 574.684 28.5601 575.147 28.0973C575.61 27.6344 576.15 27.4801 576.767 27.4801C577.461 27.4801 578.156 27.7887 578.85 28.483L580.547 23.9316C580.007 23.623 579.621 23.3916 579.236 23.2373Z" fill="#F5F5F5"/>
<path d="M602.532 27.2484C602.301 26.477 601.915 25.7055 601.452 25.0884C600.989 24.4713 600.295 23.9313 599.524 23.5455C598.752 23.1598 597.826 23.0055 596.824 23.0055C596.052 23.0055 595.358 23.0827 594.818 23.3141C594.201 23.5455 593.738 23.777 593.429 24.0084V18.6084H590.189C590.112 18.6084 589.649 18.6084 589.341 18.9941C589.341 18.9941 588.955 19.3798 588.955 19.9198V36.0427H592.195C592.272 36.0427 592.735 36.0427 593.044 35.657C593.044 35.657 593.429 35.2712 593.429 34.7312V34.8855C593.738 35.117 593.969 35.3484 594.278 35.5027C594.587 35.657 594.895 35.8884 595.435 36.0427C595.898 36.197 596.515 36.2741 597.209 36.2741C598.135 36.2741 599.061 36.0427 599.986 35.5798C600.912 35.117 601.606 34.4227 602.224 33.4198C602.841 32.417 603.072 31.1827 603.072 29.717C602.841 28.8684 602.764 28.0198 602.532 27.2484ZM597.286 32.1855C596.746 32.6484 596.207 32.8798 595.589 32.8798C594.664 32.8798 593.969 32.5712 593.275 31.9541V27.0941C594.124 26.5541 594.895 26.2455 595.589 26.2455C596.284 26.2455 596.824 26.5541 597.364 27.0941C597.827 27.6341 598.135 28.4827 598.135 29.6398C598.058 30.8741 597.826 31.7227 597.286 32.1855Z" fill="#F5F5F5"/>
<path d="M470 26.1686L474.32 21.9258V24.3172H477.946V26.4001H474.32V32.0315C474.32 33.3429 474.86 34.0372 475.94 34.0372C476.789 34.0372 477.637 33.7286 478.563 33.1886V35.3486C477.714 35.8115 476.711 36.1201 475.709 36.1201C474.629 36.0429 473.78 35.7343 473.086 35.1943C472.854 35.0401 472.7 34.8086 472.546 34.5772C472.391 34.3458 472.314 34.0372 472.16 33.6515C472.006 33.2658 472.006 32.5715 472.006 31.4915V26.3229H470V26.1686Z" fill="white"/>
<path d="M485.738 24.2402C487.512 24.2402 488.978 24.7802 490.135 25.9374C491.292 27.0945 491.909 28.4831 491.909 30.2574C491.909 31.9545 491.292 33.3431 490.135 34.4231C488.978 35.5031 487.435 36.0431 485.661 36.0431C483.886 36.0431 482.498 35.5031 481.341 34.3459C480.184 33.1888 479.566 31.8002 479.566 30.1802C479.566 28.4831 480.184 27.0945 481.341 25.9374C482.498 24.7802 483.964 24.2402 485.738 24.2402ZM485.584 26.3231C484.504 26.3231 483.578 26.7088 482.884 27.4031C482.189 28.0974 481.804 29.0231 481.804 30.1802C481.804 31.2602 482.189 32.1859 482.884 32.8802C483.578 33.5745 484.504 33.9602 485.661 33.9602C486.818 33.9602 487.744 33.5745 488.438 32.8802C489.132 32.1859 489.518 31.2602 489.518 30.1802C489.518 29.1002 489.132 28.1745 488.361 27.4802C487.666 26.7088 486.741 26.3231 485.584 26.3231Z" fill="white"/>
<path d="M494.453 18.2998H496.767V35.8884H494.453V18.2998ZM501.936 24.3169H504.636L499.699 29.9484L505.639 35.8884H502.553L496.767 29.9484L501.936 24.3169Z" fill="white"/>
<path d="M511.503 24.2402C513.278 24.2402 514.743 24.7802 515.901 25.9374C517.058 27.0945 517.675 28.4831 517.675 30.2574C517.675 31.9545 517.058 33.3431 515.901 34.4231C514.743 35.5031 513.201 36.0431 511.426 36.0431C509.652 36.0431 508.263 35.5031 507.106 34.3459C505.949 33.1888 505.332 31.8002 505.332 30.1802C505.332 28.4831 505.949 27.0945 507.106 25.9374C508.263 24.7802 509.729 24.2402 511.503 24.2402ZM511.426 26.3231C510.346 26.3231 509.421 26.7088 508.726 27.4031C508.032 28.0974 507.646 29.0231 507.646 30.1802C507.646 31.2602 508.032 32.1859 508.726 32.8802C509.421 33.5745 510.346 33.9602 511.503 33.9602C512.661 33.9602 513.586 33.5745 514.281 32.8802C514.975 32.1859 515.361 31.2602 515.361 30.1802C515.361 29.1002 514.975 28.1745 514.203 27.4802C513.509 26.7088 512.506 26.3231 511.426 26.3231Z" fill="white"/>
</g>
<rect x="1323" y="12" width="127" height="32" rx="6" fill="white"/>
<path d="M1342.82 32.5H1339.86V23.7727H1342.88C1343.74 23.7727 1344.49 23.9474 1345.11 24.2969C1345.74 24.6435 1346.22 25.142 1346.55 25.7926C1346.89 26.4432 1347.05 27.2216 1347.05 28.1278C1347.05 29.0369 1346.88 29.8182 1346.55 30.4716C1346.21 31.125 1345.73 31.6264 1345.09 31.9759C1344.46 32.3253 1343.7 32.5 1342.82 32.5ZM1341.44 31.1321H1342.74C1343.35 31.1321 1343.86 31.0213 1344.26 30.7997C1344.67 30.5753 1344.97 30.2415 1345.18 29.7983C1345.38 29.3523 1345.49 28.7955 1345.49 28.1278C1345.49 27.4602 1345.38 26.9062 1345.18 26.4659C1344.97 26.0227 1344.67 25.6918 1344.27 25.473C1343.87 25.2514 1343.38 25.1406 1342.79 25.1406H1341.44V31.1321ZM1350.37 32.6321C1349.96 32.6321 1349.58 32.5582 1349.25 32.4105C1348.92 32.2599 1348.66 32.0384 1348.47 31.7457C1348.28 31.4531 1348.18 31.0923 1348.18 30.6634C1348.18 30.294 1348.25 29.9886 1348.39 29.7472C1348.52 29.5057 1348.71 29.3125 1348.94 29.1676C1349.18 29.0227 1349.45 28.9134 1349.74 28.8395C1350.04 28.7628 1350.35 28.7074 1350.67 28.6733C1351.05 28.6335 1351.36 28.598 1351.6 28.5668C1351.84 28.5327 1352.01 28.4815 1352.12 28.4134C1352.23 28.3423 1352.28 28.233 1352.28 28.0852V28.0597C1352.28 27.7386 1352.19 27.4901 1352 27.3139C1351.81 27.1378 1351.53 27.0497 1351.18 27.0497C1350.8 27.0497 1350.5 27.1321 1350.28 27.2969C1350.06 27.4616 1349.91 27.6562 1349.83 27.8807L1348.39 27.6761C1348.51 27.2784 1348.7 26.946 1348.96 26.679C1349.22 26.4091 1349.54 26.2074 1349.92 26.0739C1350.29 25.9375 1350.71 25.8693 1351.17 25.8693C1351.48 25.8693 1351.8 25.9062 1352.11 25.9801C1352.42 26.054 1352.71 26.1761 1352.97 26.3466C1353.23 26.5142 1353.43 26.7429 1353.59 27.0327C1353.75 27.3224 1353.83 27.6847 1353.83 28.1193V32.5H1352.34V31.6009H1352.29C1352.2 31.7827 1352.07 31.9531 1351.9 32.1122C1351.73 32.2685 1351.52 32.3949 1351.26 32.4915C1351.01 32.5852 1350.71 32.6321 1350.37 32.6321ZM1350.77 31.4986C1351.08 31.4986 1351.35 31.4375 1351.58 31.3153C1351.8 31.1903 1351.98 31.0256 1352.1 30.821C1352.23 30.6165 1352.29 30.3935 1352.29 30.152V29.3807C1352.24 29.4205 1352.16 29.4574 1352.04 29.4915C1351.93 29.5256 1351.8 29.5554 1351.66 29.581C1351.52 29.6065 1351.38 29.6293 1351.24 29.6491C1351.1 29.669 1350.98 29.6861 1350.87 29.7003C1350.64 29.7315 1350.44 29.7827 1350.26 29.8537C1350.07 29.9247 1349.93 30.0241 1349.83 30.152C1349.72 30.277 1349.67 30.4389 1349.67 30.6378C1349.67 30.9219 1349.77 31.1364 1349.98 31.2812C1350.19 31.4261 1350.45 31.4986 1350.77 31.4986ZM1358.69 25.9545V27.1477H1354.82V25.9545H1358.69ZM1355.79 32.5V25.3366C1355.79 24.8963 1355.88 24.5298 1356.06 24.2372C1356.25 23.9446 1356.5 23.7259 1356.81 23.581C1357.12 23.4361 1357.46 23.3636 1357.84 23.3636C1358.1 23.3636 1358.34 23.3849 1358.55 23.4276C1358.76 23.4702 1358.91 23.5085 1359.01 23.5426L1358.7 24.7358C1358.64 24.7159 1358.55 24.696 1358.46 24.6761C1358.36 24.6534 1358.25 24.642 1358.12 24.642C1357.84 24.642 1357.63 24.7116 1357.51 24.8509C1357.4 24.9872 1357.34 25.1832 1357.34 25.4389V32.5H1355.79ZM1363.17 25.9545V27.1477H1359.41V25.9545H1363.17ZM1360.34 24.3864H1361.88V30.5312C1361.88 30.7386 1361.91 30.8977 1361.97 31.0085C1362.04 31.1165 1362.12 31.1903 1362.23 31.2301C1362.33 31.2699 1362.45 31.2898 1362.58 31.2898C1362.67 31.2898 1362.76 31.2827 1362.84 31.2685C1362.92 31.2543 1362.99 31.2415 1363.03 31.2301L1363.29 32.4361C1363.21 32.4645 1363.09 32.4957 1362.94 32.5298C1362.79 32.5639 1362.6 32.5838 1362.38 32.5895C1362 32.6009 1361.65 32.5426 1361.34 32.4148C1361.03 32.2841 1360.78 32.0824 1360.6 31.8097C1360.42 31.5369 1360.33 31.196 1360.34 30.7869V24.3864ZM1366.34 32.6321C1365.93 32.6321 1365.56 32.5582 1365.22 32.4105C1364.89 32.2599 1364.63 32.0384 1364.44 31.7457C1364.25 31.4531 1364.15 31.0923 1364.15 30.6634C1364.15 30.294 1364.22 29.9886 1364.36 29.7472C1364.49 29.5057 1364.68 29.3125 1364.92 29.1676C1365.15 29.0227 1365.42 28.9134 1365.71 28.8395C1366.01 28.7628 1366.32 28.7074 1366.64 28.6733C1367.02 28.6335 1367.33 28.598 1367.57 28.5668C1367.81 28.5327 1367.98 28.4815 1368.09 28.4134C1368.2 28.3423 1368.26 28.233 1368.26 28.0852V28.0597C1368.26 27.7386 1368.16 27.4901 1367.97 27.3139C1367.78 27.1378 1367.51 27.0497 1367.15 27.0497C1366.77 27.0497 1366.47 27.1321 1366.25 27.2969C1366.03 27.4616 1365.88 27.6562 1365.81 27.8807L1364.37 27.6761C1364.48 27.2784 1364.67 26.946 1364.93 26.679C1365.19 26.4091 1365.51 26.2074 1365.89 26.0739C1366.27 25.9375 1366.68 25.8693 1367.14 25.8693C1367.46 25.8693 1367.77 25.9062 1368.08 25.9801C1368.4 26.054 1368.68 26.1761 1368.94 26.3466C1369.2 26.5142 1369.41 26.7429 1369.56 27.0327C1369.72 27.3224 1369.8 27.6847 1369.8 28.1193V32.5H1368.32V31.6009H1368.27C1368.17 31.7827 1368.04 31.9531 1367.87 32.1122C1367.7 32.2685 1367.49 32.3949 1367.23 32.4915C1366.98 32.5852 1366.69 32.6321 1366.34 32.6321ZM1366.74 31.4986C1367.05 31.4986 1367.32 31.4375 1367.55 31.3153C1367.78 31.1903 1367.95 31.0256 1368.07 30.821C1368.2 30.6165 1368.26 30.3935 1368.26 30.152V29.3807C1368.21 29.4205 1368.13 29.4574 1368.01 29.4915C1367.9 29.5256 1367.77 29.5554 1367.63 29.581C1367.49 29.6065 1367.35 29.6293 1367.21 29.6491C1367.07 29.669 1366.95 29.6861 1366.85 29.7003C1366.62 29.7315 1366.41 29.7827 1366.23 29.8537C1366.05 29.9247 1365.9 30.0241 1365.8 30.152C1365.69 30.277 1365.64 30.4389 1365.64 30.6378C1365.64 30.9219 1365.74 31.1364 1365.95 31.2812C1366.16 31.4261 1366.42 31.4986 1366.74 31.4986ZM1371.35 32.5V25.9545H1372.85V27.0455H1372.92C1373.03 26.6676 1373.24 26.3764 1373.53 26.1719C1373.82 25.9645 1374.16 25.8608 1374.53 25.8608C1374.62 25.8608 1374.71 25.8651 1374.82 25.8736C1374.92 25.8793 1375.01 25.8892 1375.08 25.9034V27.3224C1375.02 27.2997 1374.92 27.2798 1374.77 27.2628C1374.63 27.2429 1374.5 27.233 1374.37 27.233C1374.09 27.233 1373.83 27.294 1373.61 27.4162C1373.39 27.5355 1373.21 27.7017 1373.09 27.9148C1372.96 28.1278 1372.89 28.3736 1372.89 28.652V32.5H1371.35ZM1383.9 26.1719C1383.86 25.7997 1383.69 25.5099 1383.39 25.3026C1383.1 25.0952 1382.72 24.9915 1382.25 24.9915C1381.92 24.9915 1381.64 25.0412 1381.4 25.1406C1381.17 25.2401 1380.99 25.375 1380.86 25.5455C1380.74 25.7159 1380.67 25.9105 1380.67 26.1293C1380.67 26.3111 1380.71 26.4687 1380.79 26.6023C1380.88 26.7358 1380.99 26.8494 1381.14 26.9432C1381.28 27.0341 1381.44 27.1108 1381.62 27.1733C1381.8 27.2358 1381.97 27.2884 1382.15 27.331L1382.97 27.5355C1383.3 27.6122 1383.62 27.7159 1383.92 27.8466C1384.23 27.9773 1384.5 28.142 1384.74 28.3409C1384.99 28.5398 1385.18 28.7798 1385.32 29.0611C1385.47 29.3423 1385.54 29.6719 1385.54 30.0497C1385.54 30.5611 1385.41 31.0114 1385.15 31.4006C1384.88 31.7869 1384.51 32.0895 1384.01 32.3082C1383.52 32.5241 1382.93 32.6321 1382.23 32.6321C1381.55 32.6321 1380.96 32.527 1380.46 32.3168C1379.96 32.1065 1379.57 31.7997 1379.29 31.3963C1379.01 30.9929 1378.86 30.5014 1378.84 29.9219H1380.39C1380.42 30.2259 1380.51 30.4787 1380.68 30.6804C1380.84 30.8821 1381.05 31.0327 1381.32 31.1321C1381.59 31.2315 1381.88 31.2812 1382.21 31.2812C1382.56 31.2812 1382.86 31.2301 1383.12 31.1278C1383.38 31.0227 1383.58 30.8778 1383.73 30.6932C1383.88 30.5057 1383.95 30.2869 1383.96 30.0369C1383.95 29.8097 1383.89 29.6222 1383.76 29.4744C1383.63 29.3239 1383.44 29.1989 1383.21 29.0994C1382.97 28.9972 1382.7 28.9062 1382.39 28.8267L1381.4 28.571C1380.68 28.3864 1380.11 28.1065 1379.69 27.7315C1379.28 27.3537 1379.07 26.8523 1379.07 26.2273C1379.07 25.7131 1379.21 25.2628 1379.49 24.8764C1379.77 24.4901 1380.15 24.1903 1380.63 23.9773C1381.12 23.7614 1381.66 23.6534 1382.27 23.6534C1382.89 23.6534 1383.44 23.7614 1383.9 23.9773C1384.37 24.1903 1384.74 24.4872 1385 24.8679C1385.27 25.2457 1385.41 25.6804 1385.42 26.1719H1383.9ZM1389.78 32.6278C1389.12 32.6278 1388.55 32.4915 1388.08 32.2188C1387.6 31.9432 1387.24 31.554 1386.98 31.0511C1386.73 30.5455 1386.6 29.9503 1386.6 29.2656C1386.6 28.5923 1386.73 28.0014 1386.98 27.4929C1387.24 26.9815 1387.6 26.5838 1388.06 26.2997C1388.53 26.0128 1389.07 25.8693 1389.7 25.8693C1390.1 25.8693 1390.48 25.9347 1390.84 26.0653C1391.2 26.1932 1391.52 26.392 1391.79 26.6619C1392.07 26.9318 1392.29 27.2756 1392.45 27.6932C1392.61 28.108 1392.69 28.6023 1392.69 29.1761V29.6491H1387.32V28.6094H1391.21C1391.21 28.3139 1391.14 28.0511 1391.02 27.821C1390.89 27.5881 1390.72 27.4048 1390.49 27.2713C1390.27 27.1378 1390.01 27.071 1389.72 27.071C1389.4 27.071 1389.12 27.1477 1388.89 27.3011C1388.65 27.4517 1388.46 27.6506 1388.33 27.8977C1388.2 28.142 1388.13 28.4105 1388.13 28.7031V29.6108C1388.13 29.9915 1388.2 30.3182 1388.34 30.5909C1388.48 30.8608 1388.67 31.0682 1388.92 31.2131C1389.17 31.3551 1389.46 31.4261 1389.8 31.4261C1390.02 31.4261 1390.23 31.3949 1390.41 31.3324C1390.59 31.267 1390.75 31.1719 1390.88 31.0469C1391.01 30.9219 1391.11 30.767 1391.18 30.5824L1392.62 30.7443C1392.53 31.125 1392.36 31.4574 1392.1 31.7415C1391.85 32.0227 1391.53 32.2415 1391.13 32.3977C1390.74 32.5511 1390.28 32.6278 1389.78 32.6278ZM1395.4 30.446L1395.39 28.5838H1395.64L1397.99 25.9545H1399.8L1396.9 29.1761H1396.58L1395.4 30.446ZM1393.99 32.5V23.7727H1395.53V32.5H1393.99ZM1398.1 32.5L1395.97 29.5213L1397.01 28.4347L1399.94 32.5H1398.1ZM1402.71 32.6321C1402.29 32.6321 1401.92 32.5582 1401.59 32.4105C1401.26 32.2599 1401 32.0384 1400.8 31.7457C1400.61 31.4531 1400.52 31.0923 1400.52 30.6634C1400.52 30.294 1400.59 29.9886 1400.72 29.7472C1400.86 29.5057 1401.04 29.3125 1401.28 29.1676C1401.52 29.0227 1401.78 28.9134 1402.08 28.8395C1402.38 28.7628 1402.68 28.7074 1403 28.6733C1403.38 28.6335 1403.7 28.598 1403.93 28.5668C1404.17 28.5327 1404.35 28.4815 1404.45 28.4134C1404.57 28.3423 1404.62 28.233 1404.62 28.0852V28.0597C1404.62 27.7386 1404.53 27.4901 1404.34 27.3139C1404.14 27.1378 1403.87 27.0497 1403.51 27.0497C1403.13 27.0497 1402.84 27.1321 1402.61 27.2969C1402.39 27.4616 1402.25 27.6562 1402.17 27.8807L1400.73 27.6761C1400.84 27.2784 1401.03 26.946 1401.29 26.679C1401.55 26.4091 1401.87 26.2074 1402.25 26.0739C1402.63 25.9375 1403.05 25.8693 1403.5 25.8693C1403.82 25.8693 1404.13 25.9062 1404.45 25.9801C1404.76 26.054 1405.04 26.1761 1405.3 26.3466C1405.56 26.5142 1405.77 26.7429 1405.92 27.0327C1406.08 27.3224 1406.16 27.6847 1406.16 28.1193V32.5H1404.68V31.6009H1404.63C1404.54 31.7827 1404.4 31.9531 1404.23 32.1122C1404.07 32.2685 1403.85 32.3949 1403.6 32.4915C1403.35 32.5852 1403.05 32.6321 1402.71 32.6321ZM1403.11 31.4986C1403.42 31.4986 1403.69 31.4375 1403.91 31.3153C1404.14 31.1903 1404.32 31.0256 1404.44 30.821C1404.56 30.6165 1404.62 30.3935 1404.62 30.152V29.3807C1404.58 29.4205 1404.49 29.4574 1404.38 29.4915C1404.26 29.5256 1404.14 29.5554 1403.99 29.581C1403.85 29.6065 1403.71 29.6293 1403.57 29.6491C1403.43 29.669 1403.31 29.6861 1403.21 29.7003C1402.98 29.7315 1402.77 29.7827 1402.59 29.8537C1402.41 29.9247 1402.27 30.0241 1402.16 30.152C1402.06 30.277 1402 30.4389 1402 30.6378C1402 30.9219 1402.11 31.1364 1402.32 31.2812C1402.52 31.4261 1402.79 31.4986 1403.11 31.4986ZM1407.71 32.5V25.9545H1409.21V27.0455H1409.28C1409.4 26.6676 1409.6 26.3764 1409.89 26.1719C1410.18 25.9645 1410.52 25.8608 1410.89 25.8608C1410.98 25.8608 1411.07 25.8651 1411.18 25.8736C1411.29 25.8793 1411.38 25.8892 1411.45 25.9034V27.3224C1411.38 27.2997 1411.28 27.2798 1411.14 27.2628C1411 27.2429 1410.86 27.233 1410.73 27.233C1410.45 27.233 1410.2 27.294 1409.97 27.4162C1409.75 27.5355 1409.58 27.7017 1409.45 27.9148C1409.32 28.1278 1409.26 28.3736 1409.26 28.652V32.5H1407.71ZM1414.24 32.6321C1413.82 32.6321 1413.45 32.5582 1413.12 32.4105C1412.79 32.2599 1412.53 32.0384 1412.33 31.7457C1412.14 31.4531 1412.05 31.0923 1412.05 30.6634C1412.05 30.294 1412.12 29.9886 1412.25 29.7472C1412.39 29.5057 1412.58 29.3125 1412.81 29.1676C1413.05 29.0227 1413.31 28.9134 1413.61 28.8395C1413.91 28.7628 1414.21 28.7074 1414.53 28.6733C1414.92 28.6335 1415.23 28.598 1415.47 28.5668C1415.7 28.5327 1415.88 28.4815 1415.99 28.4134C1416.1 28.3423 1416.15 28.233 1416.15 28.0852V28.0597C1416.15 27.7386 1416.06 27.4901 1415.87 27.3139C1415.68 27.1378 1415.4 27.0497 1415.04 27.0497C1414.67 27.0497 1414.37 27.1321 1414.14 27.2969C1413.93 27.4616 1413.78 27.6562 1413.7 27.8807L1412.26 27.6761C1412.38 27.2784 1412.56 26.946 1412.82 26.679C1413.09 26.4091 1413.4 26.2074 1413.78 26.0739C1414.16 25.9375 1414.58 25.8693 1415.04 25.8693C1415.35 25.8693 1415.66 25.9062 1415.98 25.9801C1416.29 26.054 1416.58 26.1761 1416.83 26.3466C1417.09 26.5142 1417.3 26.7429 1417.46 27.0327C1417.62 27.3224 1417.69 27.6847 1417.69 28.1193V32.5H1416.21V31.6009H1416.16C1416.07 31.7827 1415.93 31.9531 1415.76 32.1122C1415.6 32.2685 1415.38 32.3949 1415.13 32.4915C1414.88 32.5852 1414.58 32.6321 1414.24 32.6321ZM1414.64 31.4986C1414.95 31.4986 1415.22 31.4375 1415.44 31.3153C1415.67 31.1903 1415.85 31.0256 1415.97 30.821C1416.09 30.6165 1416.16 30.3935 1416.16 30.152V29.3807C1416.11 29.4205 1416.03 29.4574 1415.91 29.4915C1415.8 29.5256 1415.67 29.5554 1415.53 29.581C1415.38 29.6065 1415.24 29.6293 1415.1 29.6491C1414.96 29.669 1414.84 29.6861 1414.74 29.7003C1414.51 29.7315 1414.31 29.7827 1414.12 29.8537C1413.94 29.9247 1413.8 30.0241 1413.69 30.152C1413.59 30.277 1413.54 30.4389 1413.54 30.6378C1413.54 30.9219 1413.64 31.1364 1413.85 31.2812C1414.05 31.4261 1414.32 31.4986 1414.64 31.4986ZM1420.79 28.6648V32.5H1419.25V25.9545H1420.72V27.0668H1420.8C1420.95 26.7003 1421.19 26.4091 1421.52 26.1932C1421.85 25.9773 1422.26 25.8693 1422.75 25.8693C1423.2 25.8693 1423.59 25.9659 1423.93 26.1591C1424.27 26.3523 1424.53 26.6321 1424.71 26.9986C1424.9 27.3651 1424.99 27.8097 1424.99 28.3324V32.5H1423.45V28.571C1423.45 28.1335 1423.33 27.7912 1423.11 27.544C1422.88 27.2969 1422.57 27.1733 1422.17 27.1733C1421.9 27.1733 1421.66 27.233 1421.45 27.3523C1421.25 27.4687 1421.08 27.6378 1420.96 27.8594C1420.85 28.081 1420.79 28.3494 1420.79 28.6648ZM1429.4 35.0909C1428.85 35.0909 1428.38 35.0156 1427.98 34.8651C1427.58 34.7173 1427.26 34.5185 1427.02 34.2685C1426.78 34.0185 1426.61 33.7415 1426.52 33.4375L1427.9 33.1009C1427.97 33.2287 1428.06 33.3551 1428.18 33.4801C1428.3 33.608 1428.46 33.7131 1428.66 33.7955C1428.86 33.8807 1429.12 33.9233 1429.43 33.9233C1429.87 33.9233 1430.23 33.8168 1430.52 33.6037C1430.8 33.3935 1430.95 33.0469 1430.95 32.5639V31.3239H1430.87C1430.79 31.483 1430.67 31.6463 1430.52 31.8139C1430.37 31.9815 1430.17 32.1222 1429.92 32.2358C1429.67 32.3494 1429.36 32.4062 1428.99 32.4062C1428.48 32.4062 1428.03 32.2884 1427.62 32.0526C1427.21 31.8139 1426.89 31.4588 1426.65 30.9872C1426.41 30.5128 1426.29 29.919 1426.29 29.206C1426.29 28.4872 1426.41 27.8807 1426.65 27.3864C1426.89 26.8892 1427.21 26.5128 1427.62 26.2571C1428.03 25.9986 1428.49 25.8693 1428.99 25.8693C1429.38 25.8693 1429.69 25.9347 1429.94 26.0653C1430.19 26.1932 1430.39 26.348 1430.53 26.5298C1430.68 26.7088 1430.79 26.8778 1430.87 27.0369H1430.96V25.9545H1432.48V32.6065C1432.48 33.1662 1432.34 33.6293 1432.08 33.9957C1431.81 34.3622 1431.44 34.6364 1430.98 34.8182C1430.52 35 1429.99 35.0909 1429.4 35.0909ZM1429.42 31.196C1429.74 31.196 1430.02 31.1165 1430.25 30.9574C1430.48 30.7983 1430.66 30.5696 1430.78 30.2713C1430.9 29.973 1430.96 29.6151 1430.96 29.1974C1430.96 28.7855 1430.9 28.4247 1430.78 28.1151C1430.66 27.8054 1430.49 27.5653 1430.26 27.3949C1430.03 27.2216 1429.75 27.1349 1429.42 27.1349C1429.07 27.1349 1428.79 27.2244 1428.56 27.4034C1428.33 27.5824 1428.15 27.8281 1428.04 28.1406C1427.92 28.4503 1427.86 28.8026 1427.86 29.1974C1427.86 29.598 1427.92 29.9489 1428.04 30.25C1428.16 30.5483 1428.33 30.7812 1428.56 30.9489C1428.79 31.1136 1429.08 31.196 1429.42 31.196Z" fill="#E74243"/>
<defs>
<clipPath id="clip0_303_8051">
<rect width="191.828" height="18" fill="white" transform="translate(470 18.2998)"/>
</clipPath>
</defs>
</svg>
